<svg xmlns="http://www.w3.org/2000/svg" viewBox="0 0 512 512">
  <defs>
    <linearGradient id="bg" x1="96" y1="72" x2="416" y2="440" gradientUnits="userSpaceOnUse">
      <stop stop-color="#5f7cff"/>
      <stop offset=".52" stop-color="#31b5c9"/>
      <stop offset="1" stop-color="#36c17b"/>
    </linearGradient>
    <linearGradient id="page" x1="168" y1="128" x2="352" y2="376" gradientUnits="userSpaceOnUse">
      <stop stop-color="#fff"/>
      <stop offset="1" stop-color="#dff7f2"/>
    </linearGradient>
  </defs>
  <rect width="512" height="512" rx="112" fill="url(#bg)"/>
  <path d="M128 204c0-24.3 19.7-44 44-44h61.8c10.1 0 19.8 4 26.9 11.2l16.2 16.2c7.1 7.1 16.8 11.1 26.9 11.1H364c24.3 0 44 19.7 44 44V344c0 26.5-21.5 48-48 48H176c-26.5 0-48-21.5-48-48V204Z" fill="#0f2630" opacity=".22"/>
  <path d="M112 188c0-24.3 19.7-44 44-44h64.2c9.8 0 19.3 3.9 26.2 10.9l18.6 18.6c7 7 16.4 10.9 26.2 10.9H356c24.3 0 44 19.7 44 44V328c0 26.5-21.5 48-48 48H160c-26.5 0-48-21.5-48-48V188Z" fill="url(#page)"/>
  <path d="M192 260h128M192 308h88" stroke="#26767b" stroke-width="24" stroke-linecap="round"/>
  <path d="M360 148v-34M360 114h-34M360 114l-56 56" stroke="#e9fff8" stroke-width="24" stroke-linecap="round" stroke-linejoin="round" opacity=".95"/>
</svg>
